<?xml version="1.0" encoding="iso-8859-1"?>
<!-- Generator: Adobe Illustrator 19.0.0, SVG Export Plug-In . SVG Version: 6.00 Build 0)  -->
<svg version="1.1" id="Layer_1" xmlns="http://www.w3.org/2000/svg" xmlns:xlink="http://www.w3.org/1999/xlink" x="0px" y="0px"
	 viewBox="0 0 512 512" style="enable-background:new 0 0 512 512;" xml:space="preserve">
<g>
	<g>
		<path d="M488.417,225.266c-5.514-41.862-22.061-80.206-46.68-112.135c6.896-12.203,5.667-27.768-4.716-38.151
			c-10.366-10.384-25.951-11.612-38.148-4.715c-31.93-24.62-70.275-41.167-112.138-46.681C283.012,10.036,270.715,0,256,0
			s-27.012,10.036-30.734,23.583c-41.863,5.514-80.208,22.061-112.138,46.681c-12.198-6.897-27.783-5.669-38.148,4.715
			c-10.383,10.383-11.612,25.948-4.716,38.151c-24.618,31.93-41.165,70.273-46.68,112.135C10.036,228.988,0,241.285,0,256
			c0,14.698,10.013,26.984,23.539,30.721c5.393,41.115,21.409,79.758,46.585,112.359c-6.751,12.172-5.466,27.618,4.855,37.94
			c5.949,5.958,13.723,8.875,21.54,9.143c-1.698,4.199-3.284,8.081-5.02,12.388l-3.708,9.146
			c-6.771,16.292,0.958,35.052,17.229,41.833c4.021,1.677,8.167,2.458,12.271,2.458c12.542,0,24.479-7.417,29.604-19.698
			c0.772-1.859,3.874-11.151,8.303-24.857c22.147,10.556,45.754,17.906,70.111,21.125C229.081,502.034,241.339,512,256,512
			c14.668,0,26.928-9.974,30.695-23.456c27.661-3.697,54.353-12.768,79.19-26.038c5.307,16.507,9.039,27.728,9.906,29.816
			c3.292,7.885,9.458,14.021,17.354,17.271c3.938,1.615,8.063,2.406,12.188,2.406c4.167,0,8.354-0.813,12.313-2.469
			c16.271-6.781,24-25.542,17.229-41.833v-0.01l-3.792-9.333c-2.008-4.98-3.848-9.487-5.805-14.323
			c4.359-1.505,8.431-3.699,11.742-7.01c6.042-6.042,9.375-14.083,9.375-22.625c0-5.742-1.621-11.195-4.438-16.026
			c24.958-32.539,40.986-71.008,46.419-111.624C501.945,283.035,512,270.728,512,256C512,241.285,501.964,228.988,488.417,225.266z
			 M127.208,484.083c-2.271,5.438-8.5,8.021-13.979,5.76c-5.417-2.26-8-8.521-5.729-13.958l3.771-9.354
			c33.375-82.75,59.563-145.323,78.313-187.01C168.333,357.427,130.25,476.625,127.208,484.083z M409.438,489.844
			c-2.667,1.104-5.542,1.104-8.167,0.021c-2.646-1.083-4.708-3.135-5.792-5.74c-3.063-7.49-41.146-126.677-62.375-204.583
			c18.708,41.656,44.875,104.146,78.208,186.792l3.854,9.552c0,0,0,0,0,0.01C417.438,481.333,414.854,487.583,409.438,489.844z
			 M408.974,403.967c-34.139-83.383-59.194-141.159-74.432-171.488c6.917-8.875,8.771-20.781,4.313-31.469
			c-5.75-13.802-25.25-37.458-44.292-29.521c-18.375,7.646-20.604,40.146-14.792,54.156c4.021,9.615,12.438,16.406,22.333,18.635
			c10.563,46.625,38.867,139.599,57.22,197.638c-60.651,33.635-136.091,35.23-197.568,5.03
			c18.25-57.525,47.918-154.625,58.806-202.678c9.896-2.229,18.333-9.031,22.333-18.646c5.813-14,3.563-46.49-14.792-54.135
			c-19.042-7.917-38.542,15.719-44.313,29.531c-4.438,10.677-2.563,22.583,4.333,31.448c-15.715,31.288-41.796,91.52-77.561,179.108
			C67.404,371.255,42.667,315.473,42.667,256c0-117.635,95.708-213.333,213.333-213.333S469.333,138.365,469.333,256
			C469.333,311.279,447.376,364.28,408.974,403.967z M315.271,221.688c-0.896,0.635-1.646,1.375-2.292,2.198
			c-0.667-0.135-1.375-0.208-2.104-0.208c-0.25,0-0.521,0.01-0.792,0.031c-4.604,0.271-8.875-2.115-10.604-6.26
			c-3.042-7.313-0.313-23.958,2.938-26.188h0.021c3.313,0,13,9.042,16.729,17.969C321.313,214.375,318.75,219.198,315.271,221.688z
			 M203.479,209.24c3.75-8.948,13.458-18,16.313-18.104c3.708,2.344,6.438,19,3.396,26.292c-1.729,4.156-6,6.531-10.625,6.281
			c-1.063-0.125-2-0.01-2.875,0.177c-0.646-0.823-1.396-1.563-2.271-2.188C203.917,219.198,201.354,214.375,203.479,209.24z"/>
	</g>
</g>
<g>
</g>
<g>
</g>
<g>
</g>
<g>
</g>
<g>
</g>
<g>
</g>
<g>
</g>
<g>
</g>
<g>
</g>
<g>
</g>
<g>
</g>
<g>
</g>
<g>
</g>
<g>
</g>
<g>
</g>
</svg>
