<?xml version="1.0" encoding="iso-8859-1"?>
<!-- Generator: Adobe Illustrator 19.0.0, SVG Export Plug-In . SVG Version: 6.00 Build 0)  -->
<svg version="1.1" id="Capa_1" xmlns="http://www.w3.org/2000/svg" xmlns:xlink="http://www.w3.org/1999/xlink" x="0px" y="0px"
	 viewBox="0 0 513.196 513.196" style="enable-background:new 0 0 513.196 513.196;" xml:space="preserve">
<g>
	<g>
		<path d="M510.316,88.48l-5.973-5.974l1.365-1.451c9.984-10.028,9.984-26.239,0-36.267L469.526,8.608
			c-9.994-9.984-26.187-9.984-36.181,0l-1.451,1.451L425.836,4c-3.316-3.323-8.697-3.328-12.02-0.012
			c-0.004,0.004-0.008,0.008-0.012,0.012c-3.327,3.354-3.327,8.764,0,12.117l6.059,5.973l-12.117,12.117l-6.059-6.059
			c-3.323-3.323-8.709-3.323-12.032,0c-3.323,3.323-3.323,8.709,0,12.032l6.059,6.059c-8.605,8.62-11.956,21.177-8.789,32.939
			l-20.139,20.225L366.188,100l-0.429,0.394c-0.073,0.068-0.171,0.089-0.242,0.16c-0.046,0.046-0.059,0.109-0.104,0.156l-0.25,0.229
			l-23.382,23.381l-0.305,0.305l-0.093,0.062l-0.062,0.093l-0.307,0.307l-22.528,22.613l-0.884,0.884
			c-0.11,0.099-0.254,0.133-0.36,0.239c-0.106,0.106-0.14,0.25-0.239,0.36l-0.906,0.906l-22.893,22.808l-0.095,0.064l-0.062,0.094
			l-0.074,0.074l-22.187,22.187l-0.165,0.205c-0.069,0.065-0.161,0.084-0.229,0.152l-0.007,0.01l-0.026-0.026
			c-6.799-7.256-14.416-13.699-22.699-19.2c-26.795-17.493-66.304-18.347-86.016,10.325c-6.192,10.236-10.471,21.513-12.629,33.28
			c-3.413,13.909-6.315,25.856-15.445,32.341c-9.347,4.96-19.915,7.151-30.464,6.315c-4.096,0.171-8.192,0.341-12.203,0.683
			c-35.467,3.318-66.564,25.076-81.835,57.259c-12.492,30.6-12.061,64.955,1.195,95.232c15.81,39.01,46.076,70.407,84.48,87.637
			c17.714,8.09,36.932,12.364,56.405,12.544c6.871,0.026,13.728-0.603,20.48-1.877c26.456-4.347,49.833-19.695,64.341-42.24
			c9.986-17.269,15.199-36.884,15.104-56.832c0.085-2.731,0.085-5.632,0.085-8.533c-0.144-5.617,0.141-11.237,0.853-16.811
			c0.446-5.497,2.361-10.773,5.547-15.275c6.912-9.387,20.309-12.117,34.389-14.933c5.632-1.109,11.349-2.304,16.811-3.925
			c14.165-4.096,29.611-14.507,30.379-31.232c0.853-17.493-15.104-31.061-31.232-35.499c-2.731-0.768-5.547-1.365-8.448-1.963
			c-5.238-0.887-10.342-2.435-15.189-4.608l81.237-81.237l24.149-24.149l24.149-24.149l21.333-21.333
			c2.864,0.785,5.82,1.186,8.789,1.195c9.058,0.02,17.75-3.574,24.149-9.984h0.086l5.973,5.973
			c3.197,3.323,8.483,3.424,11.805,0.227c0.077-0.074,0.153-0.15,0.227-0.227c3.323-3.315,3.328-8.696,0.013-12.019
			c-0.004-0.004-0.009-0.009-0.013-0.013l-5.973-5.973l12.032-12.117l6.059,5.973c3.196,3.323,8.48,3.425,11.803,0.229
			c0.078-0.075,0.154-0.151,0.229-0.229c3.323-3.314,3.329-8.695,0.015-12.017C510.325,88.49,510.321,88.485,510.316,88.48z
			 M138.874,424.935c-0.005,0.005-0.01,0.01-0.015,0.015c-1.601,1.612-3.787,2.505-6.059,2.475
			c-2.246,0.029-4.406-0.865-5.973-2.475l-36.267-36.181c-3.323-3.315-3.329-8.695-0.014-12.018
			c0.005-0.005,0.009-0.009,0.015-0.013l0-0.001c3.253-3.346,8.602-3.422,11.948-0.169c0.057,0.056,0.114,0.112,0.169,0.169
			l36.181,36.181C142.182,416.232,142.188,421.612,138.874,424.935z M163.009,449.099L163.009,449.099
			c-0.383,0.391-0.813,0.735-1.28,1.023c-0.493,0.317-1.006,0.602-1.536,0.853c-0.5,0.182-1.014,0.324-1.536,0.427
			c-0.557,0.141-1.133,0.198-1.707,0.171c-2.245,0.022-4.402-0.871-5.973-2.475c-3.323-3.197-3.424-8.483-0.227-11.805
			c0.074-0.077,0.15-0.153,0.227-0.227c2.019-1.998,4.884-2.889,7.68-2.389c0.524,0.132,1.038,0.303,1.536,0.512l1.536,0.768
			c0.447,0.345,0.875,0.716,1.28,1.109c1.603,1.572,2.497,3.729,2.475,5.973C165.507,445.31,164.615,447.494,163.009,449.099z
			 M199.158,437.024c-3.343,3.325-8.75,3.311-12.075-0.032c-1.582-1.591-2.475-3.74-2.485-5.984c0.025-2.277,0.945-4.453,2.56-6.059
			c3.389-3.157,8.643-3.157,12.032,0C202.516,428.293,202.501,433.699,199.158,437.024z M199.338,388.731
			c-0.031,0.031-0.062,0.062-0.148,0.037l0-0.001c-9.961,9.991-26.135,10.016-36.127,0.055c-0.018-0.018-0.036-0.036-0.055-0.055
			l-36.182-36.181c-10.043-9.963-10.108-26.181-0.145-36.224c9.963-10.043,26.181-10.108,36.224-0.145
			c0.034,0.034,0.069,0.068,0.103,0.103l36.181,36.267C209.212,362.557,209.309,378.709,199.338,388.731z M252.268,286.197
			l-12.032,12.032l-24.149-24.149l12.032-12.031h0.043l24.127,24.129L252.268,286.197z M266.945,271.606l-0.768,0.683l-0.085,0.171
			l-0.853,0.939l-0.841,0.757l-24.148-24.152l12.104-12.105l24.064,24.149L266.945,271.606z M288.534,250.016l-24.149-24.149
			l11.435-11.52l0.427-0.427l0.171-0.085l0.034-0.034l24.108,24.105L288.534,250.016z M323.265,215.2l-10.581,10.667l-0.015,0.015
			l-24.151-24.148l0.016-0.016l10.631-10.631l24.105,24.108L323.265,215.2z M335.382,203.168l-0.002,0.002l-24.148-24.15
			l12.069-12.069l24.108,24.105L335.382,203.168z M359.532,179.019l-0.013,0.013l-24.151-24.148l12.072-12.072l24.105,24.108
			L359.532,179.019z M395.713,142.837l-12.1,12.016l-24.105-24.108l12.067-12.067l24.147,24.15L395.713,142.837z M407.83,130.721
			h-0.084l-24.106-24.109l12.073-12.072l24.149,24.149L407.83,130.721z M425.85,64.316c-0.005,0.005-0.01,0.01-0.015,0.015
			c-3.197,3.323-8.483,3.424-11.805,0.227c-0.077-0.074-0.153-0.15-0.227-0.227l-5.973-5.973l12.032-12.032l5.973,5.973
			C429.158,55.613,429.165,60.994,425.85,64.316z M438.18,40.408c-0.077-0.074-0.153-0.15-0.227-0.227l-5.973-5.973l12.032-12.032
			l5.973,5.973c3.323,3.316,3.328,8.697,0.012,12.02c-0.004,0.004-0.008,0.008-0.012,0.012
			C446.788,43.504,441.502,43.605,438.18,40.408z M456.044,106.571l-6.059-6.059c-3.323-3.323-3.323-8.709,0-12.032
			c3.323-3.323,8.709-3.323,12.032,0l6.059,6.059L456.044,106.571z M480.193,82.422l-6.059-5.973c-3.327-3.354-3.327-8.763,0-12.117
			c3.316-3.323,8.697-3.328,12.02-0.012c0.004,0.004,0.008,0.008,0.012,0.012l6.059,6.059L480.193,82.422z"/>
	</g>
</g>
<g>
	<g>
		<path d="M187.172,364.633c-0.005-0.005-0.009-0.009-0.014-0.014l-36.267-36.181c-3.323-3.323-8.709-3.323-12.032,0
			c-3.323,3.323-3.323,8.709,0,12.032l36.181,36.181c3.354,3.328,8.764,3.328,12.117,0
			C190.481,373.336,190.487,367.956,187.172,364.633z"/>
	</g>
</g>
<g>
</g>
<g>
</g>
<g>
</g>
<g>
</g>
<g>
</g>
<g>
</g>
<g>
</g>
<g>
</g>
<g>
</g>
<g>
</g>
<g>
</g>
<g>
</g>
<g>
</g>
<g>
</g>
<g>
</g>
</svg>
