<?xml version="1.0" encoding="iso-8859-1"?>
<!-- Generator: Adobe Illustrator 19.0.0, SVG Export Plug-In . SVG Version: 6.00 Build 0)  -->
<svg version="1.1" id="Capa_1" xmlns="http://www.w3.org/2000/svg" xmlns:xlink="http://www.w3.org/1999/xlink" x="0px" y="0px"
	 viewBox="0 0 512 512" style="enable-background:new 0 0 512 512;" xml:space="preserve">
<g>
	<g>
		<path d="M497,240h-46.596C469.887,220.927,482,194.354,482,165c0-57.897-47.103-105-105-105h-36.147
			c-12.02,0-23.32-4.681-31.819-13.181L284.18,21.967C270.015,7.801,251.181,0,231.147,0H76c-5.886,0-11.228,3.442-13.659,8.802
			c-2.433,5.36-1.505,11.646,2.37,16.076L181,157.779V240h-76c-24.813,0-45,20.187-45,45v15H45c-24.813,0-45,20.187-45,45v30
			c0,8.284,6.716,15,15,15h16.731l13.381,108.831C46.037,506.35,52.424,512,60,512h30c7.576,0,13.963-5.65,14.888-13.169
			L118.269,390h154.463l13.381,108.831C287.037,506.35,293.424,512,301,512h30c7.576,0,13.963-5.65,14.888-13.169L359.269,390
			h34.463l13.381,108.831C408.037,506.35,414.424,512,422,512h30c7.576,0,13.963-5.65,14.888-13.169l13.636-110.91
			C498.749,382.165,512,365.102,512,345v-90C512,246.716,505.284,240,497,240z M109.057,30h122.091
			c12.02,0,23.32,4.681,31.819,13.181l24.854,24.852C301.985,82.199,320.819,90,340.853,90H377c41.355,0,75,33.645,75,75
			s-33.645,75-75,75h-84.193L211,146.507V75c0-8.284-6.716-15-15-15s-15,6.716-15,15v37.221L109.057,30z M252.943,240H211v-47.935
			L252.943,240z M76.731,482h-3.463l-11.312-92h26.086L76.731,482z M317.731,482h-3.463l-11.312-92h26.086L317.731,482z
			 M438.731,482h-3.463l-11.312-92h26.086L438.731,482z M482,345c0,8.271-6.729,15-15,15c-25.734,0-420.653,0-437,0v-15
			c0-8.271,6.729-15,15-15h30c8.284,0,15-6.716,15-15v-30c0-8.271,6.729-15,15-15c7.245,0,366.14,0,377,0V345z"/>
	</g>
</g>
<g>
</g>
<g>
</g>
<g>
</g>
<g>
</g>
<g>
</g>
<g>
</g>
<g>
</g>
<g>
</g>
<g>
</g>
<g>
</g>
<g>
</g>
<g>
</g>
<g>
</g>
<g>
</g>
<g>
</g>
</svg>
