<svg height="350" viewBox="0 0 57 60" width="512" xmlns="http://www.w3.org/2000/svg"><g id="Page-1" fill="none" fill-rule="evenodd"><g id="022---Saxophone" fill="#888888" fill-rule="nonzero" transform="translate(0 -1)"><path id="Shape" d="m17.836 45.324.017-.22c.0413322-.5502318-.3708219-1.0299594-.921-1.072-.2651481-.0234448-.5285392.0610899-.7305205.2344588-.2019813.1733688-.3254631.420903-.3424795.6865412l-.018.235c-.1433993 2.2862577.444275 4.5588549 1.678 6.489 1.7377024 2.6754914 4.4921088 4.5258486 7.626 5.123.3528702.066659.7143888-.0610102.9471432-.3344809.2327544-.2734706.3010015-.6507469.1788008-.9884269-.1222007-.3376801-.4160835-.5839077-.769944-.6450922-2.5830917-.4913368-4.8540137-2.0150359-6.288-4.219-1.0074216-1.5727337-1.489577-3.4246728-1.377-5.289z"/><path id="Shape" d="m41.119 43.326c.2266258.1377868.4987063.1799001.7563832.1170749.257677-.0628252.4798415-.2254422.6176168-.4520749.9415023-1.5327079 2.0120509-2.9822976 3.2-4.333.237298-.2687274.3125872-.643922.1973349-.9833946-.1152524-.3394726-.4034099-.5912756-.7552681-.6599819-.3518582-.0687064-.7135742.0561976-.9480668.3273765-1.2622956 1.4372415-2.3997485 2.9794939-3.4 4.61-.28746.4711428-.1388695 1.0860925.332 1.374z"/><path id="Shape" d="m47.854 36c.2531899-.0000956.4969182-.0962289.682-.269.5-.468 1-.908 1.483-1.321.2718791-.2322226.3992165-.591851.3340453-.9434165-.0651711-.3515655-.3129497-.6416571-.65-.761-.3370502-.1193429-.7121662-.0498061-.9840453.1824165-.507.431-1.026.892-1.55 1.381-.3005955.2805985-.3987765.7166054-.2474673 1.0989648s.5212593.6331151.9324673.6320352z"/><path id="Shape" d="m0 22v2c0 1.1045695.8954305 2 2 2h7c1.1045695 0 2-.8954305 2-2v-2c-.0052514-1.2667854-.8056491-2.3937454-2-2.816v-5.184c.14348917-1.5392395.91689278-2.950692 2.137-3.9 1.0731696-.77529058 2.4198221-1.07076474 3.719-.816 1.2004137.21964027 2.2529842.9342994 2.9 1.969.927 1.482.626 2.791-.033 5.659-.134.582-.279 1.216-.427 1.911-1.514 7.059-2.6 12.085-3.376 15.69-1.989 9.227-1.989 9.227-2.055 10.171l-.019.269c-.1847847 3.1162164.6126543 6.2118887 2.28 8.851 2.8699077 4.488176 7.8317058 7.2015357 13.159 7.196 5.702193.0099847 10.9835874-2.9993677 13.882-7.91l4.744-8.021c2.6796875-4.0899836 6.1566608-7.597567 10.223-10.313.5805806-.4020459.9060972-1.0804727.8564246-1.784921s-.4671705-1.330483-1.0984246-1.647079l-18.886-9.461c-.6222187-.3135594-1.3627785-.2806936-1.9547745.0867522s-.9500915 1.016504-.9452255 1.7132478c.0477217 7.3052852-1.7038219 14.5099676-5.1 20.978-.71 1.3-1.507 2.543-2.5 2.532-.5313006-.0108527-1.0326791-.2480797-1.378-.652-.4349283-.5154897-.6401432-1.1864125-.568-1.857.173-1.707.378-3.414.582-5.122l1.467.247-.147 1.079c-.0746758.5469963.3080448 1.0510237.855 1.126.0454247.0059518.091187.0089581.137.009.4994122-.0009218.9215801-.3701586.989-.865l.546-4c.0745584-.5473142-.3086858-1.0514416-.856-1.126s-1.0514416.3086858-1.126.856l-.128.938-1.507-.253.7-6.02 1.538.257-.147 1.078c-.0746758.5469963.3080448 1.0510237.855 1.126.0454247.0059518.091187.0089581.137.009.4994122-.0009218.9215801-.3701586.989-.865l.546-4c.0745584-.5473142-.3086858-1.0514416-.856-1.126s-1.0514416.3086858-1.126.856l-.128.939-1.58-.266.484-4.166c.076-.6586667.1476667-1.2776667.215-1.857l1.609.269-.147 1.078c-.0746758.5469963.3080448 1.0510237.855 1.126.0454247.0059518.091187.0089581.137.009.4994122-.0009218.9215801-.3701586.989-.865l.546-4c.0745584-.5473142-.3086858-1.0514416-.856-1.126s-1.0514416.3086858-1.126.856l-.128.939-1.649-.276c.777-6.734.772-6.873.732-7.813l-.007-.171c-.3129114-6.60877861-5.4810364-11.95923243-12.075-12.501-3.5241931-.29621963-7.01610613.86257227-9.664 3.207-2.58060342 2.18268656-4.11279111 5.35865899-4.215 8.737v2.37 3.827c-1.19435086.4222546-1.99474861 1.5492146-2 2.816zm2 2v-2c0-.5522847.44771525-1 1-1h5c.55228475 0 1 .4477153 1 1v2zm2-10.994c.09916648-2.8166807 1.38999974-5.45869025 3.551-7.268 2.23949596-1.97872929 5.1914177-2.95439199 8.169-2.7 5.464.415 10.151 5.242 10.237 10.562l.009.2c.039.926.029 1.032-1.166 11.344l-1.6 13.762c-.223 1.851-.444 3.7-.632 5.551-.1249727 1.2220716.255093 2.4421115 1.052 3.377.7109531.8216478 1.7348465 1.3061915 2.821 1.335 2.32.072 3.577-2.21 4.322-3.573 3.555619-6.7640265 5.3909801-14.2995162 5.344-21.941l18.893 9.451c-4.300109 2.8799611-7.9736766 6.5994482-10.8 10.935l-4.758 8.043c-3.0066661 5.082989-8.8648559 7.750775-14.673 6.682-3.6855855-.6860547-6.9224197-2.8679582-8.941-6.027-1.4433123-2.2803901-2.1357542-4.9557339-1.98-7.65l.019-.269c.055-.794.075-.886 2.015-9.888.778-3.606 1.862-8.633 3.376-15.694.146-.685.289-1.308.421-1.881.69-3 1.145-4.984-.219-7.165-.9398161-1.5086499-2.4711307-2.55215063-4.219-2.875-.428412-.08252461-.863712-.12404554-1.3-.124-1.4281062-.00338774-2.8203789.44692982-3.976 1.286-1.74377258 1.32193993-2.82605124 3.3372049-2.965 5.521v5h-3v-3.646c0-1.323 0-1.902 0-2.348z"/></g></g></svg>